<?xml version="1.0" encoding="UTF-8"?>
<svg version="1.1" xmlns="http://www.w3.org/2000/svg" width="116" height="92">
<path d="M0 0 C0.77444458 -0.00335861 1.54888916 -0.00671722 2.34680176 -0.01017761 C4.90309254 -0.0196655 7.45931771 -0.02162946 10.015625 -0.02270508 C11.79394559 -0.02591852 13.57226591 -0.02928266 15.35058594 -0.03279114 C19.07617811 -0.03877654 22.80174711 -0.04063158 26.52734375 -0.04003906 C31.3023683 -0.03993733 36.07724453 -0.05360385 40.85223389 -0.07081127 C44.52393274 -0.08192469 48.19559562 -0.08395849 51.86730957 -0.08342934 C53.62797559 -0.08460989 55.38864253 -0.08903591 57.14929199 -0.0967617 C59.61005084 -0.10655084 62.07048603 -0.10368816 64.53125 -0.09765625 C65.2586438 -0.10327576 65.9860376 -0.10889526 66.73547363 -0.11468506 C70.36056861 -0.09208654 73.28914703 -0.06445944 76.265625 2.14526367 C76.760625 3.63026367 76.760625 3.63026367 77.265625 5.14526367 C77.925625 4.81526367 78.585625 4.48526367 79.265625 4.14526367 C79.760625 6.12526367 79.760625 6.12526367 80.265625 8.14526367 C80.925625 8.14526367 81.585625 8.14526367 82.265625 8.14526367 C82.389375 9.11463867 82.513125 10.08401367 82.640625 11.08276367 C82.846875 12.09338867 83.053125 13.10401367 83.265625 14.14526367 C84.255625 14.64026367 84.255625 14.64026367 85.265625 15.14526367 C85.265625 19.14526367 85.265625 19.14526367 84.265625 21.14526367 C85.255625 22.13526367 85.255625 22.13526367 86.265625 23.14526367 C85.605625 23.80526367 84.945625 24.46526367 84.265625 25.14526367 C85.255625 26.79526367 86.245625 28.44526367 87.265625 30.14526367 C86.605625 30.47526367 85.945625 30.80526367 85.265625 31.14526367 C85.760625 32.63026367 85.760625 32.63026367 86.265625 34.14526367 C86.35766243 35.66388122 86.39563784 37.18636793 86.390625 38.70776367 C86.39449219 39.88532227 86.39449219 39.88532227 86.3984375 41.08666992 C86.265625 43.14526367 86.265625 43.14526367 85.265625 45.14526367 C86.255625 44.81526367 87.245625 44.48526367 88.265625 44.14526367 C88.265625 44.80526367 88.265625 45.46526367 88.265625 46.14526367 C87.275625 47.13526367 87.275625 47.13526367 86.265625 48.14526367 C84.92353334 50.829447 85.63328824 52.26461844 86.265625 55.14526367 C86.265625 58.55625535 85.77417094 61.77614681 85.265625 65.14526367 C85.925625 65.47526367 86.585625 65.80526367 87.265625 66.14526367 C86.770625 68.12526367 86.770625 68.12526367 86.265625 70.14526367 C86.925625 70.14526367 87.585625 70.14526367 88.265625 70.14526367 C87.935625 70.80526367 87.605625 71.46526367 87.265625 72.14526367 C87.595625 72.80526367 87.925625 73.46526367 88.265625 74.14526367 C87.275625 74.14526367 86.285625 74.14526367 85.265625 74.14526367 C85.265625 75.13526367 85.265625 76.12526367 85.265625 77.14526367 C85.925625 77.47526367 86.585625 77.80526367 87.265625 78.14526367 C86.770625 79.63026367 86.770625 79.63026367 86.265625 81.14526367 C85.605625 81.14526367 84.945625 81.14526367 84.265625 81.14526367 C84.306875 82.03213867 84.348125 82.91901367 84.390625 83.83276367 C84.265625 87.14526367 84.265625 87.14526367 82.265625 92.14526367 C49.265625 92.14526367 16.265625 92.14526367 -17.734375 92.14526367 C-18.064375 91.15526367 -18.394375 90.16526367 -18.734375 89.14526367 C-19.394375 88.48526367 -20.054375 87.82526367 -20.734375 87.14526367 C-20.734375 86.15526367 -20.734375 85.16526367 -20.734375 84.14526367 C-21.394375 83.81526367 -22.054375 83.48526367 -22.734375 83.14526367 C-23.97785326 78.05830715 -23.97785326 78.05830715 -23.234375 75.27026367 C-22.60112179 72.57893755 -23.08034139 70.27648898 -23.47265625 67.57104492 C-24.08908938 61.85753786 -24.56253984 55.62975818 -22.734375 50.14526367 C-23.724375 50.14526367 -24.714375 50.14526367 -25.734375 50.14526367 C-25.404375 49.54713867 -25.074375 48.94901367 -24.734375 48.33276367 C-23.52649512 46.09139896 -23.52649512 46.09139896 -23.734375 43.14526367 C-23.528125 42.27901367 -23.321875 41.41276367 -23.109375 40.52026367 C-22.61725268 36.09116283 -23.5876679 32.40987684 -24.734375 28.14526367 C-24.074375 28.14526367 -23.414375 28.14526367 -22.734375 28.14526367 C-22.52466941 24.00432669 -22.52466941 24.00432669 -23.734375 20.14526367 C-23.074375 20.14526367 -22.414375 20.14526367 -21.734375 20.14526367 C-21.404375 16.51526367 -21.074375 12.88526367 -20.734375 9.14526367 C-20.074375 9.14526367 -19.414375 9.14526367 -18.734375 9.14526367 C-18.404375 8.15526367 -18.074375 7.16526367 -17.734375 6.14526367 C-17.095 6.00088867 -16.455625 5.85651367 -15.796875 5.70776367 C-15.11625 5.52213867 -14.435625 5.33651367 -13.734375 5.14526367 C-13.404375 4.48526367 -13.074375 3.82526367 -12.734375 3.14526367 C-11.734375 1.14526367 -11.734375 1.14526367 -10.15527344 0.52934265 C-6.77111349 -0.00755914 -3.41698728 -0.00212888 0 0 Z " fill="#9DB597" transform="translate(26.734375,-0.145263671875)"/>
<path d="M0 0 C0.77444458 -0.00335861 1.54888916 -0.00671722 2.34680176 -0.01017761 C4.90309254 -0.0196655 7.45931771 -0.02162946 10.015625 -0.02270508 C11.79394559 -0.02591852 13.57226591 -0.02928266 15.35058594 -0.03279114 C19.07617811 -0.03877654 22.80174711 -0.04063158 26.52734375 -0.04003906 C31.3023683 -0.03993733 36.07724453 -0.05360385 40.85223389 -0.07081127 C44.52393274 -0.08192469 48.19559562 -0.08395849 51.86730957 -0.08342934 C53.62797559 -0.08460989 55.38864253 -0.08903591 57.14929199 -0.0967617 C59.61005084 -0.10655084 62.07048603 -0.10368816 64.53125 -0.09765625 C65.2586438 -0.10327576 65.9860376 -0.10889526 66.73547363 -0.11468506 C70.36056861 -0.09208654 73.28914703 -0.06445944 76.265625 2.14526367 C76.760625 3.63026367 76.760625 3.63026367 77.265625 5.14526367 C77.925625 4.81526367 78.585625 4.48526367 79.265625 4.14526367 C79.760625 6.12526367 79.760625 6.12526367 80.265625 8.14526367 C80.925625 8.14526367 81.585625 8.14526367 82.265625 8.14526367 C82.389375 9.11463867 82.513125 10.08401367 82.640625 11.08276367 C82.846875 12.09338867 83.053125 13.10401367 83.265625 14.14526367 C84.255625 14.64026367 84.255625 14.64026367 85.265625 15.14526367 C85.265625 19.14526367 85.265625 19.14526367 84.265625 21.14526367 C85.255625 22.13526367 85.255625 22.13526367 86.265625 23.14526367 C85.605625 23.80526367 84.945625 24.46526367 84.265625 25.14526367 C85.255625 26.79526367 86.245625 28.44526367 87.265625 30.14526367 C86.605625 30.47526367 85.945625 30.80526367 85.265625 31.14526367 C85.760625 32.63026367 85.760625 32.63026367 86.265625 34.14526367 C86.35766243 35.66388122 86.39563784 37.18636793 86.390625 38.70776367 C86.39449219 39.88532227 86.39449219 39.88532227 86.3984375 41.08666992 C86.265625 43.14526367 86.265625 43.14526367 85.265625 45.14526367 C86.255625 44.81526367 87.245625 44.48526367 88.265625 44.14526367 C88.265625 44.80526367 88.265625 45.46526367 88.265625 46.14526367 C87.275625 47.13526367 87.275625 47.13526367 86.265625 48.14526367 C84.92353334 50.829447 85.63328824 52.26461844 86.265625 55.14526367 C86.265625 58.55625535 85.77417094 61.77614681 85.265625 65.14526367 C85.925625 65.47526367 86.585625 65.80526367 87.265625 66.14526367 C86.770625 68.12526367 86.770625 68.12526367 86.265625 70.14526367 C86.925625 70.14526367 87.585625 70.14526367 88.265625 70.14526367 C87.935625 70.80526367 87.605625 71.46526367 87.265625 72.14526367 C87.595625 72.80526367 87.925625 73.46526367 88.265625 74.14526367 C87.275625 74.14526367 86.285625 74.14526367 85.265625 74.14526367 C85.265625 75.13526367 85.265625 76.12526367 85.265625 77.14526367 C85.925625 77.47526367 86.585625 77.80526367 87.265625 78.14526367 C86.770625 79.63026367 86.770625 79.63026367 86.265625 81.14526367 C85.605625 81.14526367 84.945625 81.14526367 84.265625 81.14526367 C84.306875 82.03213867 84.348125 82.91901367 84.390625 83.83276367 C84.265625 87.14526367 84.265625 87.14526367 82.265625 92.14526367 C49.265625 92.14526367 16.265625 92.14526367 -17.734375 92.14526367 C-18.064375 91.15526367 -18.394375 90.16526367 -18.734375 89.14526367 C-19.394375 88.48526367 -20.054375 87.82526367 -20.734375 87.14526367 C-20.734375 86.15526367 -20.734375 85.16526367 -20.734375 84.14526367 C-21.394375 83.81526367 -22.054375 83.48526367 -22.734375 83.14526367 C-23.97785326 78.05830715 -23.97785326 78.05830715 -23.234375 75.27026367 C-22.60112179 72.57893755 -23.08034139 70.27648898 -23.47265625 67.57104492 C-24.08908938 61.85753786 -24.56253984 55.62975818 -22.734375 50.14526367 C-23.724375 50.14526367 -24.714375 50.14526367 -25.734375 50.14526367 C-25.404375 49.54713867 -25.074375 48.94901367 -24.734375 48.33276367 C-23.52649512 46.09139896 -23.52649512 46.09139896 -23.734375 43.14526367 C-23.528125 42.27901367 -23.321875 41.41276367 -23.109375 40.52026367 C-22.61725268 36.09116283 -23.5876679 32.40987684 -24.734375 28.14526367 C-24.074375 28.14526367 -23.414375 28.14526367 -22.734375 28.14526367 C-22.52466941 24.00432669 -22.52466941 24.00432669 -23.734375 20.14526367 C-23.074375 20.14526367 -22.414375 20.14526367 -21.734375 20.14526367 C-21.404375 16.51526367 -21.074375 12.88526367 -20.734375 9.14526367 C-20.074375 9.14526367 -19.414375 9.14526367 -18.734375 9.14526367 C-18.404375 8.15526367 -18.074375 7.16526367 -17.734375 6.14526367 C-17.095 6.00088867 -16.455625 5.85651367 -15.796875 5.70776367 C-15.11625 5.52213867 -14.435625 5.33651367 -13.734375 5.14526367 C-13.404375 4.48526367 -13.074375 3.82526367 -12.734375 3.14526367 C-11.734375 1.14526367 -11.734375 1.14526367 -10.15527344 0.52934265 C-6.77111349 -0.00755914 -3.41698728 -0.00212888 0 0 Z M-6.734375 11.14526367 C-8.12704154 13.93059674 -7.88476842 16.23515194 -7.91137695 19.3515625 C-7.92421219 20.65664261 -7.93704742 21.96172272 -7.95027161 23.30635071 C-7.95843913 24.73832826 -7.96588284 26.1703101 -7.97265625 27.60229492 C-7.97673178 28.32236914 -7.9808073 29.04244335 -7.98500633 29.784338 C-8.00586809 33.59613127 -8.02016891 37.40788854 -8.02954102 41.21972656 C-8.04060161 45.15415206 -8.07499633 49.08801138 -8.11471272 53.02223682 C-8.14087771 56.04974915 -8.14923273 59.0771266 -8.15282249 62.10474205 C-8.15768938 63.55480457 -8.16930646 65.00486102 -8.18786049 66.454813 C-8.21224297 68.48666356 -8.208868 70.51878944 -8.2043457 72.55078125 C-8.21021194 73.70612869 -8.21607819 74.86147614 -8.22212219 76.05183411 C-7.6304643 79.80429446 -6.35931976 81.4517801 -3.734375 84.14526367 C-0.92887125 85.54801555 1.42546023 85.30366099 4.5637207 85.33813477 C5.53234543 85.350401 5.53234543 85.350401 6.52053833 85.36291504 C8.66081821 85.38775793 10.80103179 85.40428247 12.94140625 85.41870117 C14.03806642 85.42668669 14.03806642 85.42668669 15.15688133 85.43483353 C19.02702155 85.46156097 22.89712957 85.48093665 26.76733398 85.49536133 C30.76241752 85.51200413 34.75667528 85.55677847 38.75144672 85.60773277 C41.8252811 85.64140981 44.89891961 85.65293914 47.97292137 85.65858841 C49.44533788 85.66530029 50.91774153 85.68052105 52.38997841 85.70447922 C54.45378253 85.73614646 56.51536184 85.73616728 58.5793457 85.72875977 C59.75245804 85.73684662 60.92557037 85.74493347 62.13423157 85.75326538 C66.19568353 84.96468043 67.66573323 83.28332114 70.265625 80.14526367 C71.63723072 77.40205224 71.40799564 75.19306515 71.42675781 72.12255859 C71.43636536 70.85751999 71.4459729 69.59248138 71.45587158 68.28910828 C71.46071987 66.90131815 71.46499862 65.51352594 71.46875 64.12573242 C71.47450214 62.7056732 71.48025986 61.28561399 71.48602295 59.86555481 C71.49653425 56.88546385 71.50237577 53.90539987 71.50585938 50.92529297 C71.51133834 47.11203444 71.5353526 43.29913402 71.56383133 39.48598766 C71.58248467 36.55112173 71.58766478 33.61634148 71.58919525 30.68142128 C71.59221726 29.27603514 71.60023059 27.87065036 71.61338043 26.46532249 C71.63049202 24.49567131 71.62670848 22.5258724 71.62207031 20.55615234 C71.62571594 19.43633469 71.62936157 18.31651703 71.63311768 17.1627655 C71.21557214 13.73427697 70.32489129 11.89592732 68.265625 9.14526367 C64.69227794 6.7630323 63.09873965 6.88242996 58.85400391 6.85473633 C58.20810806 6.8480191 57.56221222 6.84130188 56.89674377 6.8343811 C54.76181338 6.81538579 52.62719714 6.81147611 50.4921875 6.80932617 C49.00629548 6.80289891 47.52040473 6.7961706 46.03451538 6.78915405 C42.91913927 6.77717721 39.80387407 6.7734736 36.68847656 6.7746582 C32.70135399 6.77486133 28.7149447 6.74756822 24.7279911 6.71311378 C21.65842439 6.6908468 18.58902932 6.6868206 15.51939011 6.68787766 C14.04980386 6.68552104 12.58021292 6.67669394 11.11070633 6.66121292 C9.05197879 6.64155679 6.99478887 6.64738741 4.93603516 6.65942383 C3.76593903 6.65657379 2.5958429 6.65372375 1.39028931 6.65078735 C-2.37994233 7.24742433 -4.02997317 8.50509942 -6.734375 11.14526367 Z " fill="#0D0D0D" transform="translate(26.734375,-0.145263671875)"/>
<path d="M0 0 C0.33 0 0.66 0 1 0 C1.11698258 3.20802233 1.18750607 6.41549025 1.25 9.625 C1.28351563 10.52863281 1.31703125 11.43226562 1.3515625 12.36328125 C1.43753164 18.25216729 0.91882074 21.51512738 -3 26 C-5.3520006 27.1760003 -6.73734401 27.12084541 -9.35791016 27.11352539 C-10.70908432 27.11341209 -10.70908432 27.11341209 -12.08755493 27.11329651 C-13.06155243 27.10813522 -14.03554993 27.10297394 -15.0390625 27.09765625 C-16.03505463 27.0962413 -17.03104675 27.09482635 -18.05722046 27.09336853 C-21.24651053 27.08775936 -24.43573106 27.0752053 -27.625 27.0625 C-29.78385315 27.05748618 -31.94270741 27.05292307 -34.1015625 27.04882812 C-39.4010655 27.03778695 -44.70052778 27.02103988 -50 27 C-50.625 25.1875 -50.625 25.1875 -51 23 C-50.34 22.01 -49.68 21.02 -49 20 C-48.61500109 18.34450469 -48.27206865 16.6777567 -48 15 C-49.423125 15.2784375 -49.423125 15.2784375 -50.875 15.5625 C-54 16 -54 16 -56 15 C-55.34 13.35 -54.68 11.7 -54 10 C-51.89535207 10.30924214 -49.7912947 10.6225056 -47.6875 10.9375 C-45.92986328 11.19853516 -45.92986328 11.19853516 -44.13671875 11.46484375 C-41 12 -41 12 -38 13 C-38 12.34 -38 11.68 -38 11 C-37.34 11 -36.68 11 -36 11 C-36 10.34 -36 9.68 -36 9 C-34.5 7.375 -34.5 7.375 -33 6 C-33.70125 6.33 -34.4025 6.66 -35.125 7 C-38.35640675 8.12396756 -40.60142766 8.36155025 -44 8 C-46.18359375 6.48046875 -46.18359375 6.48046875 -48 5 C-46.83984375 5.03480469 -46.83984375 5.03480469 -45.65625 5.0703125 C-39.36674562 5.17928906 -34.01659801 4.85126093 -28 3 C-28.66 4.98 -29.32 6.96 -30 9 C-29.34 9 -28.68 9 -28 9 C-27.34 10.32 -26.68 11.64 -26 13 C-24.68 12.67 -23.36 12.34 -22 12 C-21.505 14.475 -21.505 14.475 -21 17 C-18.9600281 15.63676257 -18.9600281 15.63676257 -17 14 C-17 13.34 -17 12.68 -17 12 C-11.23918159 10.7017874 -5.91260345 9.74293028 0 10 C0 6.7 0 3.4 0 0 Z " fill="#96B091" transform="translate(97,58)"/>
<path d="M0 0 C0.33 0 0.66 0 1 0 C1 2.31 1 4.62 1 7 C0.34 7 -0.32 7 -1 7 C-1 7.66 -1 8.32 -1 9 C2.21667249 9.08935201 4.90226756 8.84062397 8 8 C7.51171875 9.92057292 7.0234375 11.84114583 6.53515625 13.76171875 C5.96079589 16.16397049 5.47896036 18.57712724 5 21 C1.4377769 21.11654436 -2.12395342 21.1873639 -5.6875 21.25 C-6.69490234 21.28351563 -7.70230469 21.31703125 -8.74023438 21.3515625 C-16.2503749 21.45070627 -16.2503749 21.45070627 -20.14453125 19.109375 C-23.66823418 15.10348115 -23.08334107 12.16714604 -23 7 C-22.34 6.67 -21.68 6.34 -21 6 C-21 6.66 -21 7.32 -21 8 C-19.02 8 -17.04 8 -15 8 C-15.33 7.01 -15.66 6.02 -16 5 C-15.34 5 -14.68 5 -14 5 C-14 5.99 -14 6.98 -14 8 C-12.948125 7.67 -11.89625 7.34 -10.8125 7 C-7.61126643 6.16033218 -5.2588992 5.80249096 -2 6 C-2 5.34 -2 4.68 -2 4 C-1.34 4 -0.68 4 0 4 C0 2.68 0 1.36 0 0 Z " fill="#A0B99C" transform="translate(42,64)"/>
<path d="M0 0 C0.66 0.33 1.32 0.66 2 1 C1.34 2.65 0.68 4.3 0 6 C0.66 6 1.32 6 2 6 C2.66 7.32 3.32 8.64 4 10 C5.32 9.67 6.64 9.34 8 9 C8.495 11.475 8.495 11.475 9 14 C10.98 14 12.96 14 15 14 C15 14.33 15 14.66 15 15 C8.25 15.125 8.25 15.125 6 14 C6 14.66 6 15.32 6 16 C3.14362957 15.49593463 0.74603376 14.89192926 -1.9375 13.75 C-5.98524124 12.75871643 -7.43625032 14.02856401 -11 16 C-13.875 16.1875 -13.875 16.1875 -16 16 C-16.33 14.35 -16.66 12.7 -17 11 C-17.556875 11.350625 -18.11375 11.70125 -18.6875 12.0625 C-21.53886783 13.21845993 -23.08517222 12.80967438 -26 12 C-25.34 10.35 -24.68 8.7 -24 7 C-21.89535207 7.30924214 -19.7912947 7.6225056 -17.6875 7.9375 C-15.92986328 8.19853516 -15.92986328 8.19853516 -14.13671875 8.46484375 C-11 9 -11 9 -8 10 C-8 9.34 -8 8.68 -8 8 C-7.34 8 -6.68 8 -6 8 C-6 7.34 -6 6.68 -6 6 C-4.5 4.375 -4.5 4.375 -3 3 C-3.70125 3.33 -4.4025 3.66 -5.125 4 C-8.35640675 5.12396756 -10.60142766 5.36155025 -14 5 C-16.18359375 3.48046875 -16.18359375 3.48046875 -18 2 C-17.20335937 2.02320313 -16.40671875 2.04640625 -15.5859375 2.0703125 C-9.91778714 2.16685034 -5.34226296 2.10878801 0 0 Z " fill="#7A9176" transform="translate(67,61)"/>
<path d="M0 0 C0.99 0.33 1.98 0.66 3 1 C3.13277344 1.81984375 3.26554687 2.6396875 3.40234375 3.484375 C3.57894531 4.56203125 3.75554687 5.6396875 3.9375 6.75 C4.11152344 7.81734375 4.28554687 8.8846875 4.46484375 9.984375 C4.77728167 11.7449741 5.12702501 13.50109176 5.56640625 15.234375 C6.12538063 17.51055897 6 19.66137139 6 22 C6.29044914 23.34332728 6.60955794 24.68225804 7 26 C6.195625 26.12375 5.39125 26.2475 4.5625 26.375 C3.716875 26.58125 2.87125 26.7875 2 27 C1.67 27.66 1.34 28.32 1 29 C0 28 0 28 -0.11352539 25.31616211 C-0.10828857 24.14835205 -0.10305176 22.98054199 -0.09765625 21.77734375 C-0.09443359 20.51728516 -0.09121094 19.25722656 -0.08789062 17.95898438 C-0.07953403 16.61848891 -0.07106907 15.27799412 -0.0625 13.9375 C-0.0574866 12.59310058 -0.05292342 11.2486994 -0.04882812 9.90429688 C-0.03699488 6.60282059 -0.02050971 3.30143197 0 0 Z " fill="#030303" transform="translate(98,39)"/>
<path d="M0 0 C-0.33 2.31 -0.66 4.62 -1 7 C-1.66 7 -2.32 7 -3 7 C-3.12375 7.763125 -3.2475 8.52625 -3.375 9.3125 C-4 12 -4 12 -6 15 C-7.32467746 15.6837045 -8.65863633 16.34964186 -10 17 C-11.70921589 18.5412312 -11.70921589 18.5412312 -13 20 C-13.66 19.01 -14.32 18.02 -15 17 C-14.34 17 -13.68 17 -13 17 C-12.835 15.741875 -12.67 14.48375 -12.5 13.1875 C-12.4071875 12.47980469 -12.314375 11.77210937 -12.21875 11.04296875 C-11.946767 8.84528294 -11.946767 8.84528294 -12 6 C-8.6656098 1.9246342 -5.28910237 0 0 0 Z " fill="#94AC8F" transform="translate(70,30)"/>
<path d="M0 0 C1.5625 1.6875 1.5625 1.6875 3 4 C2.71814575 6.88900605 1.91884332 9.24347003 1 12 C0.34 12 -0.32 12 -1 12 C-1 10.68 -1 9.36 -1 8 C-3.2773501 10.81509993 -3.2773501 10.81509993 -3 14 C-2.34 13.67 -1.68 13.34 -1 13 C-1 16 -1 16 -2.5 17.6875 C-2.995 18.120625 -3.49 18.55375 -4 19 C-3.2236068 22.0745356 -3.2236068 22.0745356 -1 24 C-5.92737019 25.97094808 -9.78020872 26.1799928 -15 26 C-14.24074219 25.3090625 -13.48148438 24.618125 -12.69921875 23.90625 C-9.8787536 20.86945395 -8.46010867 18.2811073 -6.8125 14.5 C-6.32394531 13.3965625 -5.83539063 12.293125 -5.33203125 11.15625 C-4.5103441 9.20926109 -3.71106593 7.25242337 -2.94921875 5.28125 C-2 3 -2 3 0 0 Z " fill="#ACBFA8" transform="translate(68,38)"/>
<path d="M0 0 C0.33 0 0.66 0 1 0 C1 6.6 1 13.2 1 20 C0.67 18.68 0.34 17.36 0 16 C-0.61488281 16.0721875 -1.22976562 16.144375 -1.86328125 16.21875 C-2.67152344 16.3115625 -3.47976562 16.404375 -4.3125 16.5 C-5.11300781 16.5928125 -5.91351563 16.685625 -6.73828125 16.78125 C-11.39018533 17.23117509 -14.88741767 17.26901094 -19 15 C-18.34 14.67 -17.68 14.34 -17 14 C-17 13.34 -17 12.68 -17 12 C-11.23918159 10.7017874 -5.91260345 9.74293028 0 10 C0 6.7 0 3.4 0 0 Z " fill="#829C7C" transform="translate(97,58)"/>
<path d="M0 0 C1.9451 2.91765 2.45276317 4.62537285 3 8 C2.01 8 1.02 8 0 8 C0.66 8.66 1.32 9.32 2 10 C2 13 2 13 1.375 15.0625 C1.25125 15.701875 1.1275 16.34125 1 17 C1.66 17.66 2.32 18.32 3 19 C-3.625 20.125 -3.625 20.125 -7 19 C-7.6875 16.9375 -7.6875 16.9375 -8 15 C-7.34 15 -6.68 15 -6 15 C-5.67 11.37 -5.34 7.74 -5 4 C-4.34 4 -3.68 4 -3 4 C-2.67 3.01 -2.34 2.02 -2 1 C-1.34 0.67 -0.68 0.34 0 0 Z " fill="#2F2F2F" transform="translate(11,5)"/>
<path d="M0 0 C1.125 6.75 1.125 6.75 0 9 C0.66 9.33 1.32 9.66 2 10 C1.60196439 12.88575819 1.20990931 13.82189513 -1.0625 15.75 C-1.701875 16.1625 -2.34125 16.575 -3 17 C-3.33 16.01 -3.66 15.02 -4 14 C-5.32 14 -6.64 14 -8 14 C-8.66 12.68 -9.32 11.36 -10 10 C-6 6 -6 6 -4 5 C-4.33 4.01 -4.66 3.02 -5 2 C-2 0 -2 0 0 0 Z " fill="#222222" transform="translate(112,56)"/>
<path d="M0 0 C0.99 0.66 1.98 1.32 3 2 C2.67 2.66 2.34 3.32 2 4 C3.65 3.67 5.3 3.34 7 3 C6.01 2.34 5.02 1.68 4 1 C5.58013217 0.74971189 7.16442306 0.52559054 8.75 0.3125 C9.63171875 0.18488281 10.5134375 0.05726562 11.421875 -0.07421875 C14.55676517 0.01602809 15.71823587 0.92615363 18 3 C17.195625 3.12375 16.39125 3.2475 15.5625 3.375 C14.716875 3.58125 13.87125 3.7875 13 4 C12.67 4.66 12.34 5.32 12 6 C12.66 6.33 13.32 6.66 14 7 C11.35541621 8.32229189 9.32238699 8.09677194 6.375 8.0625 C5.37210938 8.05347656 4.36921875 8.04445313 3.3359375 8.03515625 C2.56507812 8.02355469 1.79421875 8.01195313 1 8 C0.67 9.32 0.34 10.64 0 12 C-0.66 12 -1.32 12 -2 12 C-2.625 10.1875 -2.625 10.1875 -3 8 C-2.34 7.01 -1.68 6.02 -1 5 C-0.61500109 3.34450469 -0.27206865 1.6777567 0 0 Z " fill="#93AB8F" transform="translate(49,73)"/>
<path d="M0 0 C0.93423645 3.01031744 1.04449911 3.86650268 0 7 C0.33 7.99 0.66 8.98 1 10 C0.34 10 -0.32 10 -1 10 C-1.33 9.67 -1.66 9.34 -2 9 C-2 9.66 -2 10.32 -2 11 C-5.3 11 -8.6 11 -12 11 C-12.66 9.02 -13.32 7.04 -14 5 C-12.45568254 3.45568254 -10.82872314 3.77218719 -8.6875 3.625 C-4.96778998 3.26369059 -2.72836252 2.72836252 0 0 Z " fill="#030303" transform="translate(96,81)"/>
<path d="M0 0 C0.66 0 1.32 0 2 0 C2 0.99 2 1.98 2 3 C2.66 3 3.32 3 4 3 C3.67 3.99 3.34 4.98 3 6 C3.38932856 8.14255793 3.38932856 8.14255793 4 10 C3.34 10 2.68 10 2 10 C2 9.01 2 8.02 2 7 C-2.455 7.495 -2.455 7.495 -7 8 C-7 6.02 -7 4.04 -7 2 C-6.34 1.67 -5.68 1.34 -5 1 C-5 1.66 -5 2.32 -5 3 C-3.02 3 -1.04 3 1 3 C0.67 2.01 0.34 1.02 0 0 Z M7 1 C7.66 1.99 8.32 2.98 9 4 C7.35 3.67 5.7 3.34 4 3 C4.99 2.34 5.98 1.68 7 1 Z " fill="#A9C0A5" transform="translate(26,69)"/>
<path d="M0 0 C2.97 0.495 2.97 0.495 6 1 C5.979375 1.721875 5.95875 2.44375 5.9375 3.1875 C5.87818265 5.99490238 5.87818265 5.99490238 6.75 8.5625 C6.8325 9.366875 6.915 10.17125 7 11 C5.0625 13.3125 5.0625 13.3125 3 15 C-0.77755334 10.27805833 -0.30096975 5.74071928 0 0 Z " fill="#272727" transform="translate(3,55)"/>
<path d="M0 0 C4.29 0 8.58 0 13 0 C13.33 1.65 13.66 3.3 14 5 C9.05 5 4.1 5 -1 5 C-0.67 3.35 -0.34 1.7 0 0 Z " fill="#A5BAA0" transform="translate(50,80)"/>
<path d="M0 0 C1.5625 1.6875 1.5625 1.6875 3 4 C2.71814575 6.88900605 1.91884332 9.24347003 1 12 C0.34 12 -0.32 12 -1 12 C-1 10.68 -1 9.36 -1 8 C-3.2773501 10.81509993 -3.2773501 10.81509993 -3 14 C-2.34 13.67 -1.68 13.34 -1 13 C-1 13.99 -1 14.98 -1 16 C-2.65 15.67 -4.3 15.34 -6 15 C-6.33 15.66 -6.66 16.32 -7 17 C-6.20717977 10.85564321 -3.40624243 5.10936364 0 0 Z " fill="#B6C7B3" transform="translate(68,38)"/>
<path d="M0 0 C0.845625 0.144375 1.69125 0.28875 2.5625 0.4375 C8.78992186 1.45653267 14.69044585 2.2474335 21 2 C18.19436013 4.80563987 15.39018188 4.41631396 11.625 4.5625 C6.59466654 4.73934558 6.59466654 4.73934558 1.6484375 5.58984375 C0 6 0 6 -2 5 C-1.34 3.35 -0.68 1.7 0 0 Z " fill="#71876D" transform="translate(43,68)"/>
<path d="M0 0 C0.99 0.33 1.98 0.66 3 1 C3 2.32 3 3.64 3 5 C4.98 5 6.96 5 9 5 C9 5.33 9 5.66 9 6 C2.25 6.125 2.25 6.125 0 5 C0 5.66 0 6.32 0 7 C-3.55780196 6.39009109 -6.6828589 5.4216319 -10 4 C-10 3.67 -10 3.34 -10 3 C-8.72125 2.87625 -7.4425 2.7525 -6.125 2.625 C-2.65209064 2.30957601 -2.65209064 2.30957601 0 0 Z " fill="#829B7D" transform="translate(73,70)"/>
<path d="M0 0 C0.66 0.66 1.32 1.32 2 2 C1.65066406 2.81984375 1.30132812 3.6396875 0.94140625 4.484375 C0.48636719 5.56203125 0.03132813 6.6396875 -0.4375 7.75 C-0.88996094 8.81734375 -1.34242187 9.8846875 -1.80859375 10.984375 C-2.73979553 13.3413841 -3.4784072 15.52992835 -4 18 C-3.34 18.33 -2.68 18.66 -2 19 C-3.98 19.33 -5.96 19.66 -8 20 C-7.67 19.236875 -7.34 18.47375 -7 17.6875 C-5.82563314 15.00930865 -5.82563314 15.00930865 -6 12 C-5.34 11.67 -4.68 11.34 -4 11 C-3.27954236 9.0187415 -2.61998741 7.01495907 -2 5 C-1.34588315 3.32836805 -0.68346682 1.65984798 0 0 Z " fill="#B6C4B1" transform="translate(53,50)"/>
<path d="M0 0 C-1 2 -1 2 -3.0625 3.0625 C-7.73480272 4.55366044 -12.24236881 5.58587706 -17 4 C-17 3.34 -17 2.68 -17 2 C-11.16200408 0.30167391 -6.06892629 -0.25287193 0 0 Z " fill="#8AA585" transform="translate(97,68)"/>
<path d="M0 0 C1.4540625 0.0309375 1.4540625 0.0309375 2.9375 0.0625 C2.6075 0.7225 2.2775 1.3825 1.9375 2.0625 C1.2775 2.0625 0.6175 2.0625 -0.0625 2.0625 C0.2675 3.7125 0.5975 5.3625 0.9375 7.0625 C-1.7025 7.0625 -4.3425 7.0625 -7.0625 7.0625 C-6.4025 6.7325 -5.7425 6.4025 -5.0625 6.0625 C-4.68940101 4.40428227 -4.35549023 2.73672986 -4.0625 1.0625 C-3.0625 0.0625 -3.0625 0.0625 0 0 Z " fill="#070707" transform="translate(58.0625,-0.0625)"/>
<path d="M0 0 C-0.33 2.31 -0.66 4.62 -1 7 C-3.31 6.34 -5.62 5.68 -8 5 C-8 4.01 -8 3.02 -8 2 C-5.09399739 0.74335022 -3.20395416 0 0 0 Z " fill="#66745C" transform="translate(70,30)"/>
<path d="M0 0 C0.99 0.33 1.98 0.66 3 1 C2.690625 2.051875 2.38125 3.10375 2.0625 4.1875 C1.24314906 7.12752396 0.54516069 10.00161623 0 13 C-1.32 12.67 -2.64 12.34 -4 12 C-3.625 10.0625 -3.625 10.0625 -3 8 C-2.34 7.67 -1.68 7.34 -1 7 C-0.34786708 4.97536745 -0.34786708 4.97536745 0 3 C-0.66 2.67 -1.32 2.34 -2 2 C-1.34 1.34 -0.68 0.68 0 0 Z " fill="#AABFA6" transform="translate(47,72)"/>
<path d="M0 0 C5.75 -0.125 5.75 -0.125 8 1 C7.67 2.65 7.34 4.3 7 6 C4.36 5.34 1.72 4.68 -1 4 C0.32 3.67 1.64 3.34 3 3 C3 2.34 3 1.68 3 1 C2.01 0.67 1.02 0.34 0 0 Z " fill="#93AB8F" transform="translate(39,74)"/>
<path d="M0 0 C2.97 0.495 2.97 0.495 6 1 C6 2.65 6 4.3 6 6 C5.01 6.33 4.02 6.66 3 7 C2.67 7.66 2.34 8.32 2 9 C1.34 6.03 0.68 3.06 0 0 Z " fill="#535353" transform="translate(3,55)"/>
<path d="M0 0 C1.93784265 0.14120714 3.87526955 0.28812873 5.8125 0.4375 C7.43091797 0.55931641 7.43091797 0.55931641 9.08203125 0.68359375 C12 1 12 1 15 2 C11.99686252 3.50156874 9.20932478 3.09281204 5.875 3.0625 C4.59367187 3.05347656 3.31234375 3.04445313 1.9921875 3.03515625 C0.51105469 3.01775391 0.51105469 3.01775391 -1 3 C-0.67 2.01 -0.34 1.02 0 0 Z " fill="#4D6249" transform="translate(49,69)"/>
<path d="M0 0 C1.9451 2.91765 2.45276317 4.62537285 3 8 C1.35 8 -0.3 8 -2 8 C-2 7.01 -2 6.02 -2 5 C-2.99 4.67 -3.98 4.34 -5 4 C-4.34 4 -3.68 4 -3 4 C-2.67 3.01 -2.34 2.02 -2 1 C-1.34 0.67 -0.68 0.34 0 0 Z " fill="#6F6F6F" transform="translate(11,5)"/>
<path d="M0 0 C1.65 0 3.3 0 5 0 C5 0.66 5 1.32 5 2 C5.99 2.33 6.98 2.66 8 3 C7.67 3.99 7.34 4.98 7 6 C4.03 5.505 4.03 5.505 1 5 C1.33 3.68 1.66 2.36 2 1 C1.34 0.67 0.68 0.34 0 0 Z " fill="#8AA386" transform="translate(63,77)"/>
<path d="M0 0 C0.66 0.33 1.32 0.66 2 1 C1.67 2.32 1.34 3.64 1 5 C-1.64 5 -4.28 5 -7 5 C-2.25 1.125 -2.25 1.125 0 0 Z " fill="#A4BAA1" transform="translate(60,59)"/>
<path d="M0 0 C0.66 0 1.32 0 2 0 C1.67 0.99 1.34 1.98 1 3 C0.34 3 -0.32 3 -1 3 C-1 3.66 -1 4.32 -1 5 C-1.66 5 -2.32 5 -3 5 C-3 5.66 -3 6.32 -3 7 C-3.66 6.67 -4.32 6.34 -5 6 C-5 5.01 -5 4.02 -5 3 C-5.33 2.34 -5.66 1.68 -6 1 C-4.7934375 1.0309375 -4.7934375 1.0309375 -3.5625 1.0625 C-1.06645115 1.29633621 -1.06645115 1.29633621 0 0 Z " fill="#A8BCA4" transform="translate(62,64)"/>
<path d="M0 0 C0.66 0 1.32 0 2 0 C1.67 1.65 1.34 3.3 1 5 C1.66 5.33 2.32 5.66 3 6 C2.01 6 1.02 6 0 6 C-0.33 5.67 -0.66 5.34 -1 5 C-1.99 5 -2.98 5 -4 5 C-4 3.68 -4 2.36 -4 1 C-2.68 1.33 -1.36 1.66 0 2 C0 1.34 0 0.68 0 0 Z " fill="#859A82" transform="translate(45,57)"/>
<path d="M0 0 C0.99 0.99 1.98 1.98 3 3 C2.67 3.99 2.34 4.98 2 6 C1.67 5.34 1.34 4.68 1 4 C-0.65 4.33 -2.3 4.66 -4 5 C-2.25 1.125 -2.25 1.125 0 0 Z " fill="#777777" transform="translate(5,45)"/>
<path d="M0 0 C2 2 2 2 2 5 C2.99 5.33 3.98 5.66 5 6 C3.35 6.33 1.7 6.66 0 7 C-0.66 5.68 -1.32 4.36 -2 3 C-1.34 2.01 -0.68 1.02 0 0 Z " fill="#8FA789" transform="translate(65,54)"/>
<path d="M0 0 C0.33 0.66 0.66 1.32 1 2 C1.66 2.33 2.32 2.66 3 3 C1.1875 5.5 1.1875 5.5 -1 8 C-1.99 8 -2.98 8 -4 8 C-4 7.34 -4 6.68 -4 6 C-3.34 6 -2.68 6 -2 6 C-1.34 4.02 -0.68 2.04 0 0 Z " fill="#8CA387" transform="translate(74,54)"/>
<path d="M0 0 C0.91058531 3.07322544 1.08886184 5.80097361 1 9 C-0.32 8.67 -1.64 8.34 -3 8 C-2.45276317 4.62537285 -1.9451 2.91765 0 0 Z " fill="#A8B9A4" transform="translate(67,44)"/>
<path d="M0 0 C1.65 0 3.3 0 5 0 C5.33 1.32 5.66 2.64 6 4 C4.35 4 2.7 4 1 4 C0.67 2.68 0.34 1.36 0 0 Z " fill="#8BA586" transform="translate(51,77)"/>
<path d="M0 0 C0.66 0.33 1.32 0.66 2 1 C2.625 3.0625 2.625 3.0625 3 5 C1.02 5 -0.96 5 -3 5 C-2.34 4.67 -1.68 4.34 -1 4 C-1.33 3.01 -1.66 2.02 -2 1 C-1.34 0.67 -0.68 0.34 0 0 Z " fill="#ADC2A8" transform="translate(61,80)"/>
<path d="M0 0 C0.66 0.66 1.32 1.32 2 2 C0.68 4.97 -0.64 7.94 -2 11 C-2.66 11 -3.32 11 -4 11 C-2.7874262 7.27566618 -1.49140021 3.62197194 0 0 Z " fill="#CEDACC" transform="translate(53,50)"/>
<path d="M0 0 C0.66 0 1.32 0 2 0 C2.33 1.32 2.66 2.64 3 4 C2.34 4 1.68 4 1 4 C0.67 2.68 0.34 1.36 0 0 Z " fill="#FFFFFF" transform="translate(109,1)"/>
<path d="M0 0 C1.32 0.33 2.64 0.66 4 1 C3.67 1.66 3.34 2.32 3 3 C2.01 2.01 1.02 1.02 0 0 Z " fill="#7F7F7F" transform="translate(6,1)"/>
<path d="M0 0 C0.99 0.33 1.98 0.66 3 1 C2.01 1.33 1.02 1.66 0 2 C0 1.34 0 0.68 0 0 Z " fill="#7F7F7F" transform="translate(113,60)"/>
<path d="M0 0 C0.99 0.33 1.98 0.66 3 1 C2.01 1 1.02 1 0 1 C0 0.67 0 0.34 0 0 Z " fill="#3F3F3F" transform="translate(4,7)"/>
<path d="" fill="#FFFFFF" transform="translate(0,0)"/>
<path d="" fill="#AAAAAA" transform="translate(0,0)"/>
<path d="M0 0 C0.33 0.66 0.66 1.32 1 2 C0.34 1.67 -0.32 1.34 -1 1 C-0.67 0.67 -0.34 0.34 0 0 Z " fill="#FFFFFF" transform="translate(2,5)"/>
<path d="M0 0 C0.33 0.66 0.66 1.32 1 2 C0.34 1.67 -0.32 1.34 -1 1 C-0.67 0.67 -0.34 0.34 0 0 Z " fill="#AAAAAA" transform="translate(13,1)"/>
<path d="" fill="#FFFFFF" transform="translate(0,0)"/>
<path d="" fill="#7F7F7F" transform="translate(0,0)"/>
<path d="" fill="#FFFFFF" transform="translate(0,0)"/>
<path d="" fill="#FFFFFF" transform="translate(0,0)"/>
<path d="" fill="#FFFFFF" transform="translate(0,0)"/>
<path d="M0 0 C2 1 2 1 2 1 Z " fill="#FFFFFF" transform="translate(113,51)"/>
<path d="M0 0 C2 1 2 1 2 1 Z " fill="#FFFFFF" transform="translate(1,36)"/>
<path d="" fill="#FFFFFF" transform="translate(0,0)"/>
<path d="" fill="#FFFFFF" transform="translate(0,0)"/>
<path d="M0 0 C2 1 2 1 2 1 Z " fill="#FFFFFF" transform="translate(2,3)"/>
<path d="" fill="#7F7F7F" transform="translate(0,0)"/>
<path d="" fill="#FFFFFF" transform="translate(0,0)"/>
<path d="" fill="#000000" transform="translate(0,0)"/>
<path d="" fill="#FFFFFF" transform="translate(0,0)"/>
<path d="" fill="#FFFFFF" transform="translate(0,0)"/>
<path d="" fill="#FFFFFF" transform="translate(0,0)"/>
<path d="" fill="#000000" transform="translate(0,0)"/>
<path d="" fill="#000000" transform="translate(0,0)"/>
<path d="" fill="#FFFFFF" transform="translate(0,0)"/>
<path d="" fill="#FFFFFF" transform="translate(0,0)"/>
<path d="" fill="#FFFFFF" transform="translate(0,0)"/>
<path d="" fill="#000000" transform="translate(0,0)"/>
<path d="" fill="#000000" transform="translate(0,0)"/>
<path d="" fill="#FFFFFF" transform="translate(0,0)"/>
<path d="" fill="#FFFFFF" transform="translate(0,0)"/>
<path d="" fill="#000000" transform="translate(0,0)"/>
<path d="" fill="#FFFFFF" transform="translate(0,0)"/>
<path d="" fill="#FFFFFF" transform="translate(0,0)"/>
<path d="" fill="#000000" transform="translate(0,0)"/>
<path d="" fill="#FFFFFF" transform="translate(0,0)"/>
<path d="" fill="#FFFFFF" transform="translate(0,0)"/>
<path d="" fill="#000000" transform="translate(0,0)"/>
<path d="" fill="#FFFFFF" transform="translate(0,0)"/>
<path d="" fill="#000000" transform="translate(0,0)"/>
<path d="" fill="#FFFFFF" transform="translate(0,0)"/>
<path d="" fill="#000000" transform="translate(0,0)"/>
<path d="" fill="#FFFFFF" transform="translate(0,0)"/>
<path d="" fill="#FFFFFF" transform="translate(0,0)"/>
<path d="" fill="#FFFFFF" transform="translate(0,0)"/>
<path d="" fill="#FFFFFF" transform="translate(0,0)"/>
<path d="" fill="#FFFFFF" transform="translate(0,0)"/>
<path d="" fill="#FFFFFF" transform="translate(0,0)"/>
<path d="" fill="#000000" transform="translate(0,0)"/>
<path d="" fill="#FFFFFF" transform="translate(0,0)"/>
<path d="" fill="#FFFFFF" transform="translate(0,0)"/>
<path d="" fill="#FFFFFF" transform="translate(0,0)"/>
<path d="" fill="#000000" transform="translate(0,0)"/>
<path d="" fill="#FFFFFF" transform="translate(0,0)"/>
<path d="" fill="#FFFFFF" transform="translate(0,0)"/>
<path d="" fill="#FFFFFF" transform="translate(0,0)"/>
<path d="" fill="#FFFFFF" transform="translate(0,0)"/>
<path d="" fill="#000000" transform="translate(0,0)"/>
<path d="" fill="#000000" transform="translate(0,0)"/>
<path d="" fill="#FFFFFF" transform="translate(0,0)"/>
<path d="" fill="#000000" transform="translate(0,0)"/>
<path d="" fill="#FFFFFF" transform="translate(0,0)"/>
<path d="" fill="#FFFFFF" transform="translate(0,0)"/>
<path d="" fill="#FFFFFF" transform="translate(0,0)"/>
<path d="" fill="#FFFFFF" transform="translate(0,0)"/>
<path d="" fill="#000000" transform="translate(0,0)"/>
<path d="" fill="#FFFFFF" transform="translate(0,0)"/>
<path d="" fill="#FFFFFF" transform="translate(0,0)"/>
<path d="" fill="#FFFFFF" transform="translate(0,0)"/>
<path d="" fill="#FFFFFF" transform="translate(0,0)"/>
<path d="" fill="#FFFFFF" transform="translate(0,0)"/>
<path d="" fill="#FFFFFF" transform="translate(0,0)"/>
<path d="" fill="#FFFFFF" transform="translate(0,0)"/>
<path d="" fill="#000000" transform="translate(0,0)"/>
<path d="" fill="#FFFFFF" transform="translate(0,0)"/>
<path d="" fill="#FFFFFF" transform="translate(0,0)"/>
<path d="" fill="#FFFFFF" transform="translate(0,0)"/>
<path d="" fill="#FFFFFF" transform="translate(0,0)"/>
<path d="" fill="#FFFFFF" transform="translate(0,0)"/>
<path d="" fill="#000000" transform="translate(0,0)"/>
<path d="" fill="#FFFFFF" transform="translate(0,0)"/>
<path d="" fill="#FFFFFF" transform="translate(0,0)"/>
<path d="" fill="#000000" transform="translate(0,0)"/>
<path d="" fill="#7F7F7F" transform="translate(0,0)"/>
<path d="" fill="#FFFFFF" transform="translate(0,0)"/>
<path d="" fill="#FFFFFF" transform="translate(0,0)"/>
<path d="" fill="#000000" transform="translate(0,0)"/>
<path d="" fill="#000000" transform="translate(0,0)"/>
<path d="" fill="#000000" transform="translate(0,0)"/>
<path d="" fill="#000000" transform="translate(0,0)"/>
<path d="" fill="#000000" transform="translate(0,0)"/>
<path d="" fill="#000000" transform="translate(0,0)"/>
</svg>
